<?xml version="1.0" encoding="iso-8859-1"?>
<!-- Generator: Adobe Illustrator 16.0.0, SVG Export Plug-In . SVG Version: 6.00 Build 0)  -->
<!DOCTYPE svg PUBLIC "-//W3C//DTD SVG 1.1//EN" "http://www.w3.org/Graphics/SVG/1.1/DTD/svg11.dtd">
<svg version="1.1" id="Capa_1" xmlns="http://www.w3.org/2000/svg" xmlns:xlink="http://www.w3.org/1999/xlink" x="0px" y="0px"
	 width="603.257px" height="603.257px" viewBox="0 0 603.257 603.257" style="enable-background:new 0 0 603.257 603.257;"
	 xml:space="preserve">
<g>
	<path d="M410.914,319.115c0,60.325-48.96,109.285-109.286,109.285s-109.286-48.96-109.286-109.285
		c0-60.326,48.96-109.286,109.286-109.286S410.914,258.789,410.914,319.115z M603.257,183.6v262.286
		c0,33.835-27.365,61.199-61.2,61.199H61.2c-33.835,0-61.2-27.364-61.2-61.199V183.6c0-33.835,27.365-61.2,61.2-61.2h12.764
		c2.973,0,5.683-1.486,7.344-3.934l9.705-14.513c3.235-4.896,8.655-7.781,14.513-7.781h33.748c5.857,0,11.278,2.885,14.513,7.781
		l9.705,14.513c1.661,2.448,4.372,3.934,7.344,3.934h371.221C575.892,122.4,603.257,149.765,603.257,183.6z M437.143,319.115
		c0-74.839-60.675-135.515-135.514-135.515c-74.839,0-135.514,60.675-135.514,135.515c0,74.839,60.675,135.514,135.514,135.514
		C376.468,454.628,437.143,393.954,437.143,319.115z M559.543,183.6c0-9.617-7.869-17.485-17.486-17.485h-61.199
		c-9.617,0-17.486,7.868-17.486,17.485v26.229c0,9.617,7.869,17.486,17.486,17.486h61.199c9.617,0,17.486-7.869,17.486-17.486V183.6
		z M301.628,209.829c-60.326,0-109.286,48.96-109.286,109.286c0,60.325,48.96,109.285,109.286,109.285
		s109.286-48.96,109.286-109.285C410.914,258.789,361.954,209.829,301.628,209.829z M301.628,209.829
		c-60.326,0-109.286,48.96-109.286,109.286c0,60.325,48.96,109.285,109.286,109.285s109.286-48.96,109.286-109.285
		C410.914,258.789,361.954,209.829,301.628,209.829z"/>
</g>
<g>
</g>
<g>
</g>
<g>
</g>
<g>
</g>
<g>
</g>
<g>
</g>
<g>
</g>
<g>
</g>
<g>
</g>
<g>
</g>
<g>
</g>
<g>
</g>
<g>
</g>
<g>
</g>
<g>
</g>
</svg>
